<mxfile host="Electron" agent="Mozilla/5.0 (Windows NT 10.0; Win64; x64) AppleWebKit/537.36 (KHTML, like Gecko) draw.io/24.7.17 Chrome/128.0.6613.36 Electron/32.0.1 Safari/537.36" version="24.7.17">
  <diagram name="Page-1" id="mos-PbbNsZ_THm51wEBJ">
    <mxGraphModel dx="1185" dy="694" grid="1" gridSize="10" guides="1" tooltips="1" connect="1" arrows="1" fold="1" page="1" pageScale="1" pageWidth="850" pageHeight="1100" math="0" shadow="0">
      <root>
        <mxCell id="0" />
        <mxCell id="1" parent="0" />
        <mxCell id="wMfrHq099vKjC5REefkX-1" value="Window" style="rounded=0;whiteSpace=wrap;html=1;" parent="1" vertex="1">
          <mxGeometry x="40" y="10" width="120" height="30" as="geometry" />
        </mxCell>
        <mxCell id="wMfrHq099vKjC5REefkX-2" value="Scene" style="rounded=0;whiteSpace=wrap;html=1;" parent="1" vertex="1">
          <mxGeometry x="200" y="10" width="120" height="30" as="geometry" />
        </mxCell>
        <mxCell id="wMfrHq099vKjC5REefkX-4" value="Slider" style="rounded=0;whiteSpace=wrap;html=1;" parent="1" vertex="1">
          <mxGeometry x="360" y="10" width="120" height="30" as="geometry" />
        </mxCell>
        <mxCell id="wMfrHq099vKjC5REefkX-5" value="Interactivity policy" style="rounded=0;whiteSpace=wrap;html=1;" parent="1" vertex="1">
          <mxGeometry x="550" y="10" width="120" height="30" as="geometry" />
        </mxCell>
        <mxCell id="wMfrHq099vKjC5REefkX-9" value="" style="endArrow=none;dashed=1;html=1;strokeWidth=2;rounded=0;" parent="1" target="wMfrHq099vKjC5REefkX-1" edge="1">
          <mxGeometry width="50" height="50" relative="1" as="geometry">
            <mxPoint x="100" y="520" as="sourcePoint" />
            <mxPoint x="550" y="130" as="targetPoint" />
          </mxGeometry>
        </mxCell>
        <mxCell id="wMfrHq099vKjC5REefkX-10" value="" style="endArrow=none;dashed=1;html=1;strokeWidth=2;rounded=0;" parent="1" target="wMfrHq099vKjC5REefkX-2" edge="1">
          <mxGeometry width="50" height="50" relative="1" as="geometry">
            <mxPoint x="260" y="520" as="sourcePoint" />
            <mxPoint x="260" y="70" as="targetPoint" />
          </mxGeometry>
        </mxCell>
        <mxCell id="wMfrHq099vKjC5REefkX-12" value="" style="endArrow=none;dashed=1;html=1;strokeWidth=2;rounded=0;" parent="1" target="wMfrHq099vKjC5REefkX-4" edge="1">
          <mxGeometry width="50" height="50" relative="1" as="geometry">
            <mxPoint x="420" y="520" as="sourcePoint" />
            <mxPoint x="420" y="70" as="targetPoint" />
          </mxGeometry>
        </mxCell>
        <mxCell id="wMfrHq099vKjC5REefkX-13" value="" style="endArrow=none;dashed=1;html=1;strokeWidth=2;rounded=0;" parent="1" target="wMfrHq099vKjC5REefkX-5" edge="1">
          <mxGeometry width="50" height="50" relative="1" as="geometry">
            <mxPoint x="610" y="520" as="sourcePoint" />
            <mxPoint x="610" y="70" as="targetPoint" />
          </mxGeometry>
        </mxCell>
        <mxCell id="wMfrHq099vKjC5REefkX-17" value="" style="endArrow=classic;html=1;rounded=0;entryX=1;entryY=1;entryDx=0;entryDy=0;exitX=0;exitY=1;exitDx=0;exitDy=0;" parent="1" source="wMfrHq099vKjC5REefkX-19" target="wMfrHq099vKjC5REefkX-19" edge="1">
          <mxGeometry width="50" height="50" relative="1" as="geometry">
            <mxPoint x="100" y="100" as="sourcePoint" />
            <mxPoint x="170" y="90" as="targetPoint" />
          </mxGeometry>
        </mxCell>
        <mxCell id="wMfrHq099vKjC5REefkX-18" value="" style="rounded=0;whiteSpace=wrap;html=1;" parent="1" vertex="1">
          <mxGeometry x="250" y="100" width="20" height="390" as="geometry" />
        </mxCell>
        <mxCell id="wMfrHq099vKjC5REefkX-19" value="MouseLUp(Point)" style="text;html=1;align=center;verticalAlign=middle;whiteSpace=wrap;rounded=0;" parent="1" vertex="1">
          <mxGeometry x="100" y="70" width="150" height="30" as="geometry" />
        </mxCell>
        <mxCell id="wMfrHq099vKjC5REefkX-22" value="" style="rounded=0;whiteSpace=wrap;html=1;" parent="1" vertex="1">
          <mxGeometry x="410" y="160" width="20" height="300" as="geometry" />
        </mxCell>
        <mxCell id="wMfrHq099vKjC5REefkX-27" value="" style="rounded=0;whiteSpace=wrap;html=1;" parent="1" vertex="1">
          <mxGeometry x="600" y="220" width="20" height="210" as="geometry" />
        </mxCell>
        <mxCell id="wMfrHq099vKjC5REefkX-28" value="" style="endArrow=classic;html=1;rounded=0;exitX=0;exitY=1;exitDx=0;exitDy=0;entryX=1;entryY=1;entryDx=0;entryDy=0;" parent="1" source="wMfrHq099vKjC5REefkX-29" target="wMfrHq099vKjC5REefkX-29" edge="1">
          <mxGeometry width="50" height="50" relative="1" as="geometry">
            <mxPoint x="520" y="190" as="sourcePoint" />
            <mxPoint x="570" y="220" as="targetPoint" />
          </mxGeometry>
        </mxCell>
        <mxCell id="wMfrHq099vKjC5REefkX-29" value="MouseLUp(Slider, Point)" style="text;html=1;align=center;verticalAlign=middle;whiteSpace=wrap;rounded=0;" parent="1" vertex="1">
          <mxGeometry x="430" y="190" width="170" height="30" as="geometry" />
        </mxCell>
        <mxCell id="wMfrHq099vKjC5REefkX-30" value="" style="endArrow=none;html=1;rounded=0;exitX=0;exitY=1;exitDx=0;exitDy=0;entryX=1;entryY=1;entryDx=0;entryDy=0;startArrow=classic;startFill=1;endFill=0;" parent="1" source="wMfrHq099vKjC5REefkX-31" target="wMfrHq099vKjC5REefkX-31" edge="1">
          <mxGeometry width="50" height="50" relative="1" as="geometry">
            <mxPoint x="680" y="250" as="sourcePoint" />
            <mxPoint x="730" y="280" as="targetPoint" />
          </mxGeometry>
        </mxCell>
        <mxCell id="wMfrHq099vKjC5REefkX-31" value="DisableMouseTrack(Slider)" style="text;html=1;align=center;verticalAlign=middle;whiteSpace=wrap;rounded=0;" parent="1" vertex="1">
          <mxGeometry x="280" y="250" width="320" height="30" as="geometry" />
        </mxCell>
        <mxCell id="wMfrHq099vKjC5REefkX-33" value="" style="endArrow=none;html=1;rounded=0;exitX=0;exitY=1;exitDx=0;exitDy=0;entryX=1;entryY=1;entryDx=0;entryDy=0;endFill=0;startArrow=classic;startFill=1;" parent="1" source="wMfrHq099vKjC5REefkX-34" target="wMfrHq099vKjC5REefkX-34" edge="1">
          <mxGeometry width="50" height="50" relative="1" as="geometry">
            <mxPoint y="320" as="sourcePoint" />
            <mxPoint x="50" y="350" as="targetPoint" />
          </mxGeometry>
        </mxCell>
        <mxCell id="wMfrHq099vKjC5REefkX-34" value="DisableMouseTrack()" style="text;html=1;align=center;verticalAlign=middle;whiteSpace=wrap;rounded=0;" parent="1" vertex="1">
          <mxGeometry x="100" y="320" width="160" height="30" as="geometry" />
        </mxCell>
        <mxCell id="wMfrHq099vKjC5REefkX-47" value="" style="endArrow=classic;html=1;rounded=0;exitX=0;exitY=1;exitDx=0;exitDy=0;entryX=1;entryY=1;entryDx=0;entryDy=0;" parent="1" source="wMfrHq099vKjC5REefkX-48" target="wMfrHq099vKjC5REefkX-48" edge="1">
          <mxGeometry width="50" height="50" relative="1" as="geometry">
            <mxPoint x="390" y="250" as="sourcePoint" />
            <mxPoint x="440" y="200" as="targetPoint" />
          </mxGeometry>
        </mxCell>
        <mxCell id="wMfrHq099vKjC5REefkX-48" value="MouseLUp(Point)" style="text;html=1;align=center;verticalAlign=middle;whiteSpace=wrap;rounded=0;" parent="1" vertex="1">
          <mxGeometry x="270" y="130" width="140" height="30" as="geometry" />
        </mxCell>
        <mxCell id="wMfrHq099vKjC5REefkX-59" value="" style="rounded=0;whiteSpace=wrap;html=1;" parent="1" vertex="1">
          <mxGeometry x="260" y="280" width="20" height="120" as="geometry" />
        </mxCell>
      </root>
    </mxGraphModel>
  </diagram>
</mxfile>
